<svg version="1.2" xmlns="http://www.w3.org/2000/svg" viewBox="0 0 387 365" width="387" height="365"><style>.a{fill:#17171c}</style><path class="a" d="m101.2 264c13.9 0 10.5 16.2 21.1 19.3 11.4 3.4 17.7-5.6 15.9-14.7-2.2-9.2-9.2-18.4-33.6-18.4-27 0-36.7 15.9-36.7 37.6l0.1 0.1c0 23.1 10.2 37.9 36.7 37.9 23 0 32.8-11.3 32.8-21.4 0-9.1-2.4-14.1-17.3-11.4-6.5 1.2-12 2-19 1.3-8.6-0.8-14.1-4.8-14.1-15.1 0-9.5 3.5-15.2 14.1-15.2z"/><path fill-rule="evenodd" class="a" d="m146.7 288.9v-0.1 0.1z"/><path class="a" d="m235.6 251.9c-4-2.7-9.4 1.8-11.1 5.4-2 4.1-1.8 8.9-1.6 13.4 0.1 3.5 0.3 7 0.4 10.5 0.1 2.3 0.2 4.7-0.4 6.9-1 3.8-4.2 7.1-8.1 7.7-3.9 0.7-8.2-1.5-9.5-5.2-1.5-3.8 0-8.4-1.9-11.9-0.9-1.6-2.5-2.8-4.1-3.7-2.8-1.5-5.9-2.6-9.1-2.3-3.2 0.4-6.3 2.3-7.4 5.2-1 2.8-0.2 5.8-0.3 8.8-0.1 3.6-1.6 7.3-4.5 9.4-2.9 2.1-7.2 2.5-10.1 0.3-2.2-1.7-3.3-4.5-4.1-7.2-0.8-2.8-1.4-5.7-1.3-8.7 0.1-7.1 4.3-14.2 2.2-21-1.4-4.8-5.9-8.7-11-8.7-8 0-11.9 11.6-7 38h0.1c4.6 25.1 14.1 38 24.1 38 12.7 0 12.4-30.2 21.7-30.2 9.2 0 8.9 30.2 21.6 30.2 10 0 19.5-12.9 24.1-38 1.8-9.4 3.6-20.2 1.2-29.7-0.6-2.3-1.8-5.7-3.9-7.2z"/><path class="a" d="m311.3 288.4c0-5.2 7-9.1 5.6-18.9-1.7-14.1-23.3-19.1-37.6-19.1-14.4 0-34.9 0.1-33 20.5 1.2 12.4 1.3 25.1 0 38.1-2 17 16.2 17.6 33 17.6 17.8 0 38.1-4 39.4-19.8 0.9-10.9-7.4-13.3-7.4-18.4zm-50.1-17.4c0-5.8 3.5-8.6 14.6-8.6 9.8 0 14.6 2.5 14.6 8.6 0 7-5.9 8.7-14.6 8.7-8 0-14.6-1.7-14.6-8.7zm22.4 35.2c-8.1 0-14.7-1.6-14.7-8.6 0-5.8 3.8-8.6 14.7-8.6 9.9 0 14.6 2.5 14.6 8.6 0 7-5.9 8.6-14.6 8.6z"/><path class="a" d="m386.5 340.6c-8.4-10.9-16.8-22.1-21.2-35-7.9-23.3-5.1-53.1-1.1-76.9 3.8-22.2 2.6-41.9-0.9-64.3-0.8-4.6-2.2-9.1-2.7-13.6-1.2-8.6-3.8-16.7-5.7-25-0.8-3.5-1.1-7.1-1.7-10.6-0.7-4.2-1.6-8.3-2.4-12.6-0.3-2-0.8-4-0.8-6 0-4 0.7-7.7 2.3-11.4 1.6-3.8 2.4-7.9 3.9-11.7 1-2.8 2.6-5.5 4-8.1 1.7-3.1 3.5-6.1 5.1-9.2 0.9-1.8 1.5-3.8 2.3-5.7 0.2-0.3 0.4-0.7 0.6-1 1.1-2.3 2.3-4.5 3.2-6.7 0.8-1.9 1.1-4 1.9-5.9 1.4-2.7 1.5-5.5 0.3-8.1-1.7-3.6-3.8-7-5.9-10.4-0.7-1.2-1.8-2.1-2.8-3-1.4-1.2-3-2.2-4.1-3.5-1.6-2-3.8-3.1-6.2-3.9-1.7-0.6-3.3-1.3-5-2-1.4-0.6-2.9-1.4-4.5-1.8-3.8-1.1-7.6-2.2-11.5-2.9-5.1-0.8-9.8-0.8-14.7 0.5-6.7 1.9-11.2 6.4-15.5 11.4-0.7 0.9-1.3 2-2 2.9-2.6 3.3-5.4 6.6-7.9 10-1.8 2.5-3.4 5.3-5 8-1.5 2.4-2.7 5-4.2 7.4-1.4 2.1-3.1 4.2-4 6.6-0.3 0.6-0.5 1.4-0.9 2-0.5 0.9-1.2 1.6-2 2.1-3.4 2.5-8 3.2-12 2.1-1-0.3-2-0.7-2.8-1.4-1.2-1.1-1.7-2.9-1.9-4.5-0.3-2.8 0-5.7-0.2-8.5h0.1c-0.1-1.4-0.3-2.7-0.6-4q-1.9-6.9-4-13.8c-0.4-1.5-1.1-2.9-2-4.1-0.8-1.2-1.9-2.4-3.1-2.9-2-0.9-4.2-1.4-6.3-1.8-10.2-2.3-20.5-3.6-30.9-4.2-3.5-0.2-7.1 1-10.5 0.6-4.1-0.4-7.7 0.7-11.5 1.2-2.6 0.4-5.7 4-6.3 6.5-0.5 2.6-1.5 5-2.2 7.5-0.8 2.5-1.7 4.9-2.1 7.5-0.5 2.9-0.4 5.9-0.6 8.9-0.2 1.3-0.6 2.6-0.6 3.9 0 1.9 0.2 3.9 0.5 5.9q0.7 4.9 1.7 9.9c0.6 2.5 0.2 6.3-3.4 6.7-4.3 0.5-8.6 1.3-12.8 1.9-5.9 0.8-11.8 1.3-17.6 2.3-5.4 0.9-10.7 2.2-16 3.1-10.5 1.8-20.7 4.7-30.4 9.2-4.6 2.1-9 4.9-13.5 7.5-2.2 1.2-4.3 2.7-6.4 4.1-2.9 1.9-5.4 4.2-6 7.8-0.6 4.3-1.7 8.4-3 12.6-1.5 4.5-2 9.4-2.8 14.2-0.6 3.7-1.2 7.4-1.4 11.2-0.1 3.5 0.1 7.1 0.3 10.7 0.4 5.7 0.7 11.4 1.5 17.2 0.4 3.5-1.1 5.8-4.6 5.8h-0.8c-6.9 0.3-13.8-0.3-20.6 1.7-2.1 0.6-4.1 1.3-6.2 2.1-4 1.4-7.7 3.3-10.3 6.7-2.2 2.9-3.9 6.1-6.7 8.5-1.5 1.4-2.4 3.6-3.6 5.4-1.1 1.6-2.3 3.1-3.3 4.8-1.3 2.3-2.4 4.7-3.6 7.1-1.2 2.2-2.7 4.4-3.7 6.8-2.3 6-3.8 12.4-5.3 18.7-2 8.3-2.2 14.9-1.4 23.3 0.2 2.6 0.2 5.3 0.4 7.9 0.8 7.6 0 14.8 1.8 22.4 1.8 7.2 4.8 14.3 8.5 20.5 2.7 4.5 4.9 9.1 6.8 14 1.2 3.2 2.6 6.4 4.5 9.3 3.4 5.3 8.4 9 13.2 12.8 2.2 1.7 4.8 2.9 7 4.6 2.8 2.3 5.7 4.2 9.3 4.9q1.9 0.4 3.8 0.9c2.1 0.7 4.2 1.8 6.4 2.1q8.2 1 16.4 1.3c3.4 0.1 6.9-0.8 10.3-0.5 7.1 0.7 14.1 2.1 21.1 3 4.5 0.6 9 0.8 13.5 1.2 1.3 0.1 2.6 0 3.9 0 1.8-0.1 3.7-0.3 5.5-0.2 1.5 0 3.1 0.5 4.6 0.5 3.7-0.1 7.3-0.2 10.9-0.4q6.9-0.3 13.8-0.8c1.2 0 2.4-0.5 3.6-0.6 7.6-0.3 15.2 0.1 22.7-1.6 4.1-1 8.2-1.4 12.2-2.3 4-0.9 8-1.6 12.2-1.6 3.4 0.1 6.8-0.1 10.1-0.4 1.4-0.1 2.6-1 4-1.3 2.9-0.8 5.9-1.5 9-1.9 23-3.7 45.8-0.7 68.4-6 14.8-3.4 29.6-6.1 44.8-6.9 5.4-0.3 29.1-2.9 36.8 0 0.4 0.1 0.8-0.4 0.5-0.7zm-196.7 11.7c-0.7 0.5-2.7 0.8-3.1 0.9q-1.9 0.4-3.9 0.8c-2.5 0.5-4.9 1.1-7.5 1.3-2.6 0.2-5.3 0-7.9 0.2-3.9 0.2-7.5 1.8-11.4 1.9-4.4 0.1-8.8 0-13.2-0.1-10.7-0.2-21.5-0.3-32.3-0.7-3.6-0.1-7.1-1.1-10.7-1.4-3.4-0.2-6.9-0.2-10.3-0.2-5.8-0.1-11.8 0.6-17.5-0.6-3.5-0.8-6.9-1.8-10.4-2.9-3-0.9-6.4-1.6-9.1-3.3-2.9-1.9-5.4-4.4-8.5-6-2-1.1-3.9-2.1-5.6-3.7-1.2-0.9-2.2-1.9-3.5-2.7-2.5-1.6-2.7-4.2-3.1-6.7-0.1-0.6 0.1-1.4 0.5-1.9q0 0 0.1-0.1c0.4-0.2 1.3 0.1 1.9 0.4 4.8 2.6 9.7 5.3 14.6 7.9 1.9 1 4 1.6 5.9 2.4 2.8 1.1 5.6 2.3 8.4 3.4 3 1.3 6.1 2.4 9.2 3.4 3.2 1.1 6.6 1.9 9.9 2.8 4.3 1.1 8.4 1.7 12.8 2q4.3 0.2 8.5 1.1c4.5 0.9 9.1 1.2 13.6 1.3 2.7 0 5.5 0 8.2 0.1 2.4 0 4.8 0.4 7.3 0.5 2.9 0 5.9-0.4 8.8-0.4 4-0.1 8 0.2 12 0.3 1.3 0 2.7-0.2 4.1-0.2 3.7 0 7.4 0.3 11.2 0.2 3-0.1 6-0.7 9-0.8q3.2-0.2 6.3-0.2c1.7 0 3.6-0.3 5.3 0.3 0.2 0 0.4 0.1 0.6 0.3 0.1 0.1 0 0.3-0.2 0.4zm156.5-297.4c-2.4 5-4.7 10.1-6.7 15.2-1.5 3.8-3 7.4-1.6 11.8 0.8 2.3 0.6 5.2 0.5 7.7-0.5 9.5 0.5 18.9 1.4 28.3 0.5 4.1 0.6 8.2 0.8 12.4 0.2 5 0.5 10.1 0.5 15.1 0 4.2-0.6 8.4-0.5 12.6 0.3 5.1 1.1 10.2 1.5 15.2 0.5 6 0.4 12.2 1.3 18.1 1.3 8 0 16.1 1 24.1 0.4 4.2 0.1 8.6 0.3 12.8 0.3 5.3 0.9 10.5 1.2 15.8q0.3 5.7 0 11.4c-0.2 5.2-0.8 10.4-1.1 15.7-0.3 4.2-1 8.2-2.3 12.3-1.2 3.9-1.3 8.1-2.3 12.1-1.7 7-2.8 14.2-5.5 20.8-3.4 8.1-8.6 15-18.1 17-4.9 1-9.7 2.3-14.6 3.5-1.5 0.4-3 1-4.5 1.3-7.7 1.6-15.5 1.8-23.2 1.8-1.8 0-3.5-0.9-5.3-0.9-4.4 0-8.8 0.3-13.2 0.4-2.6 0-5.2-0.2-7.9-0.3-7.5-0.3-14.9 0.7-22.4 1.7-4.9 0.7-10 0.6-15 0.8-3.2 0.3-6.5 0.6-9.7 0.8-2.9 0.3-5.9 0.7-8.8 0.8-7.9 0.2-15.8 0.2-23.6 0.3-6.8 0.2-13.5 0.3-20.2 0.8-12.2 0.8-24.3 0.6-36.4-1.3-5.5-0.8-11.1-0.7-16.7-1.3-3.1-0.3-6.3-0.8-9.3-1.8-5.5-1.7-11-3.7-16.4-5.7-4.4-1.7-8.9-3.2-13.1-5.4-3.6-1.8-7.2-4.1-10.3-6.8-3.1-2.6-5.3-6.2-8.4-8.8-3.9-3.3-6.5-7.7-9.8-11.5-4.1-4.6-6.9-10-8.6-16-1-3.6-1.1-7-0.9-10.6 0.3-5.5-0.3-11 0-16.5 0.2-4.7 1.1-9.4 1.6-14.1 0.5-4.4 0.9-8.9 1.4-13.3 0.5-5.3 1.6-10.5 3.8-15.4 1.1-2.6 2.8-4.9 4.6-7.1 3-3.8 6.4-7 10-10 1.8-1.4 4.3-2.3 6.7-2.7 6.9-1.1 13.8-1.8 20.8-2.5 2.7-0.3 5.5-0.4 8.3-0.5 1.9-0.1 3.1 0.9 3.8 2.6 1.3 2.7 2.5 5.5 4 8 3.2 5.7 7.2 10.8 11.9 15.2 2.7 2.5 5.2 5.2 7.9 7.6 4.5 4.2 10 6.7 15.7 8.9 2.6 0.9 5 1.9 7.4 3 4.4 2 9 2.5 13.6 3.1 5.8 0.7 11.6 1.2 17.4 2.1 2.6 0.4 5 1.8 7.6 2.4 3.9 1 7.9 1.6 12 2.2 3.1 0.5 6.2 0.6 9.4 0.9 4.1 0.4 5.7-0.5 7.3-4.3 0.7-1.6 1.6-3 2-4.7 0.1-0.3 0.1-0.6 0.1-0.9-0.1-0.4-0.5-0.6-0.8-0.8-0.4-0.1-0.8-0.2-1.2-0.2-4.7-0.6-8.5-2.4-12.8-4.3-5.1-2.3-10.3-2.5-15.9-3.1-5.7-0.7-11.3-1.7-16.8-3.2-4.2-1.1-8.6-2.1-12.6-3.8-4.9-2.1-9.6-4.9-14.4-7.4-2.1-1.1-4.2-2.1-6.3-3-6.1-2.5-11.8-5.8-16.5-10.4-2.6-2.5-4.4-5.9-6.2-9.1-2-3.6-3.4-7.6-5.4-11.2-2.4-4.5-3-9.4-3.5-14.3-0.2-2.2-0.6-4.3-0.8-6.4-0.2-3.1-0.3-6.1-0.3-9.2-0.2-4.5-0.4-9.1-0.4-13.6 0-3.5 0.8-6.9 1.9-10.2 1.2-3.7 2.2-7.4 3.1-11.1 0.8-3.3 3.3-5.3 5.4-7.6 2-2.2 4.2-4.4 6.5-6.4 3.3-2.9 6.5-6 10.8-7.7 4.3-1.8 8.4-4 12.8-5.6 3.9-1.4 8-2.5 12.1-3.2 8.8-1.4 17.7-2.3 26.6-3.4 5.5-0.7 10.9-1.4 16.3-2 6.5-0.7 13-1.3 19.5-2q5.5-0.7 11-1.7c1.2-0.2 2.3-0.6 3.4-1.1 1.9-0.8 3.7-0.7 5.6-0.2 1.2 0.2 2.4 0.3 3.6 0.1 1.1-0.1 2.1-0.4 3.1-0.6q1-0.3 2.1-0.5 1.8-0.4 3.6-0.7c1-0.2 2.2-0.7 3.2-0.7 3-0.6 5.7-0.6 8.7-0.8 2.7-0.2 5.4 0.3 8.1 0.3 5.3 0.1 10.7-0.1 16 0.3 4.4 0.3 8.6-0.5 12.9-1.1 4.4-0.6 8.9-1 13.3-1 4.5 0 8.9 0.5 13.3 1 4.1 0.5 8.3-0.2 12.5-0.7 1.5-0.1 2.6-1 2.2-2.6-0.4-1.7-1-3.1-2.9-3.3-5.9-0.4-11.3-0.5-17-2.5-0.4-0.2-0.9-0.3-1.2-0.7-0.9-1.1 0-3.3 0.4-4.5q0.8-2.5 2-4.9c2.7-5 6.6-9.1 8.8-14.4 1.6-3.8 3-7.9 6.2-10.7 1.3-1.1 2.5-2.5 4-3.5 1.7-1 3.4-0.6 5.2-0.2 4 0.8 8 1 12 1.8 3.3 0.6 6.7 1.7 9.9 2.8 1.9 0.6 4.7 1.8 6.4 2.7 1.3 0.6 2.8 1.1 2.8 2.8 0 1.1-0.5 2.1-1 3-2.9 5.5-6.1 10.9-8.7 16.6zm9.8 218.4c-0.4 1.5-1.1 2.8-1.7 4.2-0.3-0.1-0.5-0.1-0.8-0.2q0.5-3.8 0.9-7.7c1-10.1 0.9-20.3 0.1-30.5-0.3-4.3-0.1-8.7-0.2-13-0.1-3.4-0.3-6.7-0.4-10.1 0-0.7 0.2-1.4 0.2-2.1v0.1c1.9-0.2 2.4 0.8 2.6 2 0.5 3.2 1.2 6.4 1.4 9.7 0.5 7.9 1.2 15.8 1.1 23.7-0.1 8-0.8 16.1-3.2 23.9z"/><path class="a" d="m279 141.7c-3.4-1.1-6.7-1.8-9.7-1.4-7.3-0.4-14.9 2.1-19.1 4.8-2 1.3-4.1 2.3-6.4 3-1.1 0.3-2.2 0.9-3.2 1.4-0.8 0.5-1.6 1.2-2.4 1.7-2.6 1.7-3.9 4.3-3.9 7.4 0 3.4 1.2 6.3 3.1 9.2 2.5 3.6 5.3 6.3 9.6 7 1.2 0.2 2.5-0.2 3.7 0 6.2 1.2 12.1-0.3 17.9-2.4 0.5-0.2 0.9-0.7 1.3-1.1 0.3-0.4 0.5-0.9 0.8-1.1 2.5-1.2 5.2-2.1 7.6-3.5 3.4-1.8 6.6-4.1 7.5-7.9 0.7-2.8 0.8-6.1 0.3-9-0.6-3.9-3-6.7-7.1-8.1z"/><path class="a" d="m142 202.9c-3-1.6-6.3-2.8-9.3-4.4-2.5-1.3-4.9-3-7.3-4.6-3.1-2.1-5.7-4.5-6.4-8.5-0.3-1.9-0.7-3.7-0.7-5.5-0.2-4.1-0.5-8.3 0-12.3 0.4-3.4 0.8-6.7 0.4-10.1-0.1-0.8 0.1-1.9 0.7-2.4 3.6-3.7 7.3-7.4 11.1-10.9 1.9-1.7 3.8-3 4.4-5.6 0.5-2.5 0.2-4.2-2.3-4.6-2.2-0.4-4.6-0.1-6.8 0.3-2.3 0.5-4.3 1.8-6.6 2.3-3.6 0.7-7.3 0.9-10.9 1.3h-0.1q-0.1-0.3-0.1-0.6c-3-0.2-6 1.6-7.1 4.6-0.2 0.8-0.2 2.1 0.2 2.9 0.6 1.4 1.6 2.5 2.4 3.8 0.7 1.4 1.8 2.7 2 4.1 1.1 8.4 2 16.9 3 25.4 0.7 4.8 1.2 9.6 2.4 14.4 0.5 2.4 1.7 5 4.9 5.5 0.8 0.1 1.4 0.8 2.1 1.2 3.4 2.1 6.7 4.3 10.2 6.2 4.4 2.4 8.9 4.5 13.3 6.8 1.5 0.8 3.7 0.6 5-0.7 1.3-1.4 1.7-3.3 0.6-4.6-1.4-1.6-3.3-2.9-5.1-4z"/></svg>