<svg version="1.2" xmlns="http://www.w3.org/2000/svg" viewBox="0 0 695 298" width="695" height="298">
	<style>
		.s0 { fill: #ffc428 } 
		.s1 { fill: #ffffff } 
	</style>
	<path class="s0" d="m314.9 277.42c-6.87-8.81-13.66-17.93-17.26-28.49-6.46-18.98-4.19-43.24-0.89-62.66 3.06-18.08 2.06-34.13-0.79-52.38-0.58-3.71-1.72-7.36-2.2-11.07-0.93-6.95-3.06-13.58-4.57-20.35-0.65-2.86-0.92-5.78-1.44-8.63-0.58-3.4-1.3-6.8-1.92-10.24-0.27-1.62-0.65-3.3-0.65-4.95 0-3.2 0.58-6.26 1.89-9.28 1.31-3.06 1.93-6.39 3.13-9.52 0.86-2.27 2.13-4.43 3.3-6.6 1.34-2.51 2.81-4.95 4.12-7.49 0.76-1.48 1.27-3.06 1.89-4.61 0.14-0.31 0.31-0.59 0.45-0.86 0.89-1.82 1.89-3.6 2.68-5.46 0.66-1.54 0.83-3.26 1.55-4.74 1.1-2.27 1.17-4.53 0.17-6.63-1.38-2.92-3.1-5.71-4.78-8.49-0.55-0.93-1.47-1.68-2.3-2.44-1.1-0.99-2.37-1.75-3.3-2.85-1.34-1.65-3.09-2.51-5.05-3.16-1.38-0.48-2.72-1.1-4.06-1.65-1.21-0.48-2.41-1.1-3.68-1.48-3.1-0.89-6.19-1.75-9.42-2.3-4.12-0.72-7.94-0.69-11.96 0.41-5.43 1.51-9.14 5.16-12.58 9.28-0.58 0.72-1.07 1.58-1.65 2.34-2.13 2.72-4.4 5.37-6.43 8.15-1.51 2.06-2.78 4.33-4.12 6.53-1.17 1.96-2.2 4.03-3.4 5.97-1.11 1.78-2.48 3.41-3.27 5.38-0.22 0.56-0.4 1.14-0.69 1.66-0.4 0.7-1 1.27-1.65 1.75-2.75 2.03-6.47 2.54-9.77 1.66-0.83-0.22-1.67-0.54-2.3-1.13-0.99-0.92-1.33-2.33-1.49-3.67-0.28-2.25-0.06-4.62-0.17-6.93h-0.01c-0.05-1.09-0.18-2.17-0.46-3.22q-1.54-5.66-3.23-11.27c-0.34-1.17-0.93-2.3-1.65-3.3-0.65-0.97-1.51-1.96-2.51-2.41-1.62-0.72-3.41-1.1-5.16-1.48-8.28-1.82-16.7-2.89-25.16-3.37-2.85-0.17-5.77 0.75-8.59 0.48-3.27-0.31-6.26 0.59-9.35 1-2.1 0.27-4.61 3.19-5.09 5.29-0.45 2.06-1.24 4.05-1.86 6.08-0.58 2.02-1.37 4.02-1.68 6.08-0.38 2.41-0.31 4.85-0.52 7.29-0.1 1.07-0.48 2.1-0.48 3.13 0 1.62 0.17 3.23 0.41 4.85q0.62 4.02 1.44 8.04c0.41 2.03 0.14 5.12-2.82 5.5-3.51 0.41-6.98 1.03-10.45 1.51-4.77 0.66-9.59 1.1-14.33 1.86-4.36 0.72-8.66 1.78-12.99 2.54-8.56 1.48-16.88 3.85-24.75 7.49-3.82 1.75-7.36 3.98-11 6.08-1.78 1.03-3.5 2.2-5.22 3.33-2.37 1.58-4.4 3.44-4.88 6.43-0.55 3.47-1.44 6.84-2.51 10.21-1.16 3.71-1.61 7.67-2.23 11.55-0.51 3.02-0.96 6.08-1.13 9.14-0.14 2.89 0.03 5.81 0.24 8.7 0.31 4.67 0.59 9.35 1.17 14.02 0.35 2.86-0.89 4.75-3.71 4.78h-0.69c-5.56 0.25-11.24-0.27-16.7 1.38-1.72 0.48-3.41 1.06-5.09 1.68-3.23 1.17-6.29 2.72-8.42 5.5-1.79 2.3-3.13 4.92-5.4 6.91-1.27 1.13-1.99 2.88-2.99 4.36-0.89 1.31-1.89 2.54-2.68 3.92-1.06 1.85-1.92 3.84-2.92 5.77-0.96 1.85-2.23 3.6-2.99 5.53-1.91 4.92-3.16 10.14-4.36 15.26-1.59 6.77-1.75 12.18-1.15 18.98 0.19 2.15 0.17 4.31 0.39 6.46 0.63 6.19-0.07 12.06 1.45 18.25 1.44 5.86 3.93 11.65 6.94 16.71 2.17 3.64 3.99 7.39 5.5 11.34 1 2.65 2.17 5.26 3.68 7.6 2.75 4.3 6.84 7.32 10.76 10.45 1.79 1.41 3.96 2.34 5.71 3.75 2.27 1.86 4.68 3.41 7.6 3.99q1.55 0.3 3.06 0.76c1.75 0.55 3.43 1.47 5.22 1.68q6.69 0.82 13.4 1.03c2.78 0.1 5.6-0.65 8.35-0.38 5.77 0.58 11.48 1.68 17.22 2.44 3.65 0.44 7.32 0.68 11 0.96 1.06 0.1 2.09 0 3.16 0 1.48-0.03 2.99-0.2 4.47-0.17 1.27 0.03 2.51 0.41 3.78 0.41 2.96-0.04 5.91-0.17 8.87-0.31q5.62-0.26 11.2-0.62c1-0.03 1.96-0.48 2.96-0.51 6.18-0.27 12.4 0.03 18.52-1.34 3.3-0.76 6.64-1.1 9.9-1.86 3.3-0.75 6.56-1.31 9.93-1.27 2.78 0.04 5.53-0.1 8.28-0.34 1.1-0.07 2.1-0.82 3.2-1.1 2.41-0.59 4.85-1.17 7.32-1.55 18.8-2.99 37.33-0.55 55.75-4.85 12.06-2.82 24.09-4.99 36.5-5.64 4.38-0.21 23.69-2.37 29.99-0.02 0.34 0.12 0.62-0.28 0.4-0.56zm-160.22 9.56l0.02 0.03c-0.56 0.35-2.2 0.6-2.53 0.68q-1.58 0.37-3.18 0.69c-2.03 0.39-3.99 0.91-6.12 1.06-2.13 0.15-4.27 0.04-6.41 0.14-3.2 0.15-6.11 1.48-9.3 1.56-3.58 0.09-7.17-0.01-10.75-0.08-8.75-0.17-17.54-0.2-26.28-0.55-2.96-0.12-5.84-0.93-8.79-1.14-2.77-0.21-5.56-0.18-8.34-0.21-4.73-0.05-9.6 0.51-14.27-0.49-2.85-0.61-5.66-1.43-8.44-2.29-2.44-0.76-5.26-1.33-7.43-2.72-2.37-1.55-4.44-3.61-6.91-4.92-1.65-0.86-3.2-1.72-4.61-2.96-0.93-0.79-1.82-1.61-2.85-2.23-2.06-1.27-2.2-3.4-2.51-5.43-0.07-0.49 0.08-1.19 0.39-1.56q0.04-0.07 0.12-0.1c0.31-0.13 1.07 0.06 1.48 0.28 3.99 2.13 7.94 4.36 11.96 6.46 1.51 0.79 3.19 1.31 4.81 1.96 2.27 0.93 4.5 1.93 6.77 2.82 2.47 1 4.98 1.89 7.49 2.75 2.65 0.91 5.38 1.56 8.1 2.25 3.47 0.88 6.86 1.42 10.43 1.63q3.49 0.21 6.92 0.89c3.67 0.72 7.38 0.97 11.1 1.05 2.23 0.05 4.45 0.05 6.67 0.1 1.98 0.04 3.93 0.37 5.93 0.4 2.37 0.04 4.77-0.34 7.18-0.34 3.26-0.03 6.5 0.17 9.76 0.24 1.1 0.03 2.23-0.14 3.33-0.14 3.03 0.03 6.08 0.24 9.11 0.17 2.48-0.07 4.92-0.55 7.39-0.69q2.54-0.14 5.09-0.13c1.44 0 2.95-0.21 4.35 0.22 0.17 0.05 0.35 0.12 0.46 0.26 0.09 0.12 0.02 0.24-0.14 0.34zm127.43-242.27c-1.92 4.09-3.78 8.22-5.46 12.41-1.21 3.06-2.44 6.05-1.24 9.59 0.65 1.92 0.44 4.22 0.34 6.32-0.42 7.74 0.41 15.37 1.2 23.03 0.35 3.33 0.48 6.7 0.62 10.07 0.17 4.09 0.41 8.21 0.41 12.3 0 3.44-0.52 6.88-0.38 10.28 0.17 4.16 0.83 8.29 1.17 12.41 0.41 4.92 0.31 9.9 1.1 14.75 1.07 6.52 0 13.09 0.76 19.62 0.38 3.44 0.07 6.98 0.28 10.45 0.24 4.29 0.76 8.55 1 12.85q0.21 4.6 0 9.25c-0.21 4.27-0.66 8.53-0.93 12.79-0.21 3.43-0.83 6.73-1.86 10.03-0.96 3.2-1.1 6.64-1.89 9.9-1.34 5.68-2.3 11.55-4.5 16.88-2.72 6.6-6.95 12.23-14.68 13.85-3.99 0.83-7.94 1.89-11.93 2.89-1.24 0.31-2.44 0.83-3.68 1.1-6.25 1.3-12.58 1.44-18.9 1.44-1.45 0-2.86-0.72-4.3-0.72-3.61-0.04-7.19 0.24-10.76 0.27-2.13 0-4.26-0.17-6.39-0.24-6.12-0.24-12.17 0.55-18.25 1.41-4.02 0.59-8.18 0.45-12.27 0.69-2.61 0.17-5.26 0.41-7.87 0.62-2.41 0.21-4.81 0.55-7.22 0.62-6.39 0.17-12.82 0.17-19.21 0.31-5.5 0.1-11 0.24-16.46 0.58-9.9 0.65-19.76 0.51-29.59-1-4.5-0.69-9.07-0.62-13.61-1.1-2.55-0.27-5.16-0.68-7.6-1.44-4.5-1.41-8.94-3.02-13.37-4.67-3.61-1.35-7.29-2.62-10.69-4.37-2.96-1.51-5.85-3.36-8.39-5.53-2.51-2.13-4.33-5.05-6.84-7.18-3.19-2.72-5.25-6.33-7.97-9.42q-4.95-5.64-7.01-13.03c-0.79-2.88-0.9-5.63-0.76-8.59 0.24-4.46-0.21-9 0-13.47 0.17-3.85 0.93-7.66 1.34-11.48 0.41-3.61 0.72-7.25 1.1-10.86 0.48-4.3 1.34-8.52 3.09-12.51 0.97-2.13 2.34-3.95 3.82-5.81 2.4-3.06 5.15-5.71 8.11-8.08 1.47-1.2 3.54-1.92 5.46-2.23 5.6-0.89 11.27-1.44 16.94-2.06 2.24-0.24 4.51-0.28 6.74-0.38 1.55-0.06 2.51 0.76 3.13 2.1 1.06 2.2 2.03 4.47 3.23 6.57 2.65 4.57 5.85 8.73 9.73 12.34 2.16 2.03 4.19 4.23 6.39 6.22 3.71 3.36 8.18 5.46 12.82 7.18 2.06 0.76 4.06 1.62 6.05 2.51 3.51 1.58 7.29 2.02 11.07 2.47 4.71 0.59 9.46 0.96 14.13 1.72 2.13 0.34 4.09 1.51 6.22 1.99 3.2 0.76 6.47 1.31 9.73 1.79 2.54 0.34 5.12 0.48 7.66 0.72 3.4 0.31 4.7-0.41 6.01-3.54 0.53-1.27 1.28-2.44 1.61-3.78 0.06-0.24 0.11-0.5 0.04-0.74-0.09-0.31-0.37-0.53-0.66-0.66-0.29-0.13-0.62-0.16-0.94-0.2-3.78-0.47-6.95-1.91-10.39-3.47-4.21-1.91-8.39-2.02-13-2.55-4.61-0.53-9.19-1.34-13.67-2.55-3.44-0.93-6.98-1.72-10.24-3.13-4.02-1.72-7.83-4.02-11.75-6.05-1.68-0.86-3.37-1.69-5.12-2.41-4.95-2.1-9.62-4.71-13.44-8.46-2.1-2.06-3.61-4.85-5.09-7.46-1.61-2.96-2.75-6.15-4.33-9.11-1.96-3.68-2.51-7.63-2.85-11.69-0.17-1.75-0.51-3.47-0.65-5.19-0.17-2.51-0.24-4.98-0.31-7.49-0.13-3.68-0.27-7.39-0.27-11.07-0.03-2.86 0.66-5.61 1.55-8.32 0.96-2.99 1.75-6.02 2.51-9.04 0.65-2.65 2.68-4.33 4.4-6.19 1.65-1.82 3.4-3.61 5.26-5.19 2.75-2.37 5.36-4.88 8.8-6.29 3.54-1.45 6.91-3.23 10.48-4.54 3.16-1.13 6.5-2.09 9.83-2.61 7.19-1.14 14.44-1.93 21.69-2.82 4.44-0.59 8.84-1.14 13.27-1.62 5.29-0.58 10.59-1.03 15.88-1.65q4.51-0.53 8.99-1.33c0.96-0.17 1.87-0.53 2.77-0.92 1.48-0.64 3-0.56 4.5-0.2 0.97 0.24 1.98 0.3 2.97 0.15 0.85-0.13 1.69-0.33 2.53-0.53h-0.01q0.87-0.21 1.74-0.4 1.46-0.29 2.93-0.59c0.84-0.18 1.77-0.56 2.63-0.56 2.42-0.5 4.6-0.49 7.05-0.65 2.16-0.13 4.36 0.25 6.56 0.28 4.37 0.07 8.74-0.1 13.1 0.21 3.53 0.25 6.86-0.39 10.47-0.87 3.61-0.48 7.23-0.84 10.87-0.84 3.63 0.01 7.24 0.39 10.83 0.82 3.36 0.4 6.78-0.12 10.14-0.53 1.24-0.15 2.13-0.83 1.83-2.19-0.31-1.3-0.82-2.51-2.37-2.61-4.78-0.34-9.25-0.44-13.84-2.08-0.36-0.13-0.73-0.27-0.98-0.56-0.75-0.88 0-2.71 0.29-3.67 0.42-1.37 1-2.7 1.67-3.97 2.17-4.1 5.38-7.42 7.16-11.74 1.26-3.07 2.42-6.49 5.02-8.71 1.1-0.94 2.05-2.09 3.3-2.85 1.35-0.81 2.72-0.53 4.19-0.21 3.24 0.7 6.53 0.88 9.77 1.46 2.73 0.5 5.46 1.43 8.12 2.29 1.49 0.48 3.83 1.48 5.21 2.21 1.04 0.55 2.23 0.91 2.25 2.32 0.01 0.87-0.42 1.68-0.83 2.45-2.4 4.47-4.96 8.9-7.11 13.49zm8.06 177.88c-0.38 1.21-0.96 2.31-1.44 3.44-0.21-0.07-0.38-0.1-0.59-0.17q0.37-3.08 0.69-6.22c0.79-8.28 0.72-16.6 0.1-24.88-0.24-3.51-0.1-7.05-0.17-10.59-0.07-2.74-0.24-5.46-0.31-8.21-0.04-0.55 0.1-1.17 0.17-1.72v0.03c1.48-0.17 1.93 0.65 2.1 1.65 0.41 2.61 0.93 5.25 1.1 7.9 0.44 6.43 1.03 12.89 0.96 19.32-0.1 6.53-0.72 13.09-2.61 19.45z"/>
	<path class="s0" d="m227.33 115.44c-2.75-0.93-5.43-1.45-7.94-1.17-5.97-0.29-12.1 1.76-15.53 3.96-1.65 1.06-3.33 1.89-5.19 2.44-0.93 0.28-1.83 0.69-2.65 1.17-0.65 0.38-1.24 0.93-1.89 1.34-2.17 1.41-3.2 3.54-3.2 6.05-0.03 2.72 0.93 5.12 2.51 7.46 1.99 2.96 4.29 5.12 7.8 5.74 0.96 0.17 2.03-0.17 2.99 0 5.09 0.93 9.9-0.28 14.61-1.96 0.42-0.17 0.73-0.62 1.07-0.96 0.24-0.28 0.38-0.72 0.69-0.86 2.03-0.96 4.2-1.72 6.19-2.82 2.71-1.48 5.32-3.41 6.08-6.5 0.58-2.31 0.62-4.92 0.24-7.29-0.51-3.23-2.47-5.47-5.77-6.6z"/>
	<path class="s0" d="m115.7 165.29c-2.44-1.34-5.08-2.3-7.56-3.61-2.07-1.1-3.99-2.47-5.95-3.78-2.54-1.69-4.67-3.68-5.19-6.91-0.24-1.51-0.59-2.99-0.62-4.5-0.11-3.33-0.38-6.7 0.03-10 0.34-2.75 0.65-5.43 0.34-8.18-0.06-0.65 0.11-1.54 0.52-1.99 2.96-3.02 5.95-6.05 9.11-8.9 1.51-1.34 3.02-2.41 3.54-4.57 0.45-1.99 0.17-3.4-1.82-3.71-1.82-0.27-3.78-0.1-5.6 0.28-1.82 0.34-3.5 1.48-5.36 1.82-2.92 0.59-5.91 0.76-8.9 1.1v-0.02h-0.03q-0.07-0.25-0.07-0.51c-2.5-0.14-4.91 1.3-5.77 3.71-0.24 0.73-0.21 1.72 0.1 2.41 0.48 1.1 1.34 2.06 1.96 3.13 0.62 1.06 1.51 2.13 1.65 3.26 0.92 6.87 1.61 13.82 2.47 20.69 0.52 3.95 0.96 7.9 1.89 11.75 0.45 1.96 1.44 4.06 4.02 4.47 0.62 0.07 1.14 0.66 1.72 1 2.75 1.68 5.43 3.5 8.28 5.05 3.57 1.96 7.25 3.68 10.86 5.57 1.21 0.62 3.03 0.45 4.06-0.62 1.03-1.1 1.37-2.64 0.48-3.71-1.1-1.3-2.65-2.4-4.16-3.23z"/>
	<path class="s1" d="m364.5 242.23q-1.79 0-3.08-1.17-1.29-1.23-1.36-3.02 0-1.6 0.99-2.83 1.05-1.29 2.59-1.54 0.06-10.72-0.06-27.17-1.48-0.31-2.46-1.48-0.99-1.17-0.98-2.77 0-1.79 1.29-3.02 1.29-1.23 3.08-1.23l6.96 0.06q1.79 0 3.02 1.29 1.23 1.29 1.23 3.08 0 1.54-1.05 2.71-0.99 1.17-2.53 1.48 0.18 16.2 0.12 26.86 1.54 0.25 2.53 1.42 1.05 1.17 1.11 2.71 0 1.79-1.23 3.08-1.17 1.29-2.96 1.35c0 0-7.21 0.18-7.21 0.19z"/>
	<path class="s1" d="m400.53 242.05q-0.43 0-0.8-0.06-1.73-0.06-2.96-1.29-1.23-1.29-1.23-3.02 0.06-2.77-0.06-17.74-0.12-14.91 0.12-17.74 0.06-1.66 1.36-2.89 1.35-1.23 3.14-1.17 0.55-0.18 1.11-0.18 2.4-0.25 3.57-0.31 0.74-0.06 2.22-0.12 1.47-0.06 3.08 0 1.66 0 2.9 0.18 1.79 0.31 4.13 0.8 2.28 0.55 4.31 1.66 2.03 1.11 3.7 2.65 3.21 2.9 4.8 6.96 1.66 4.07 1.6 8.81-0.06 4.8-1.36 8.81-1.35 4.06-4.13 7.39-2.77 3.27-6.47 5.11-3.89 1.84-10.23 2.16-1.29 0.06-4.62 0h-4.19zm8.44-8.44q4.56-0.32 6.78-1.35 3.69-1.78 5.67-5.98 1.29-2.77 1.48-6.1 0.18-3.33-0.74-6.28-0.86-3.01-2.83-4.81-2.4-2.16-6.1-2.71-3.63-0.56-9.12-0.12-0.06 5.85-0.06 8.99v6.04q0.06 3.26 0.06 6.47 0.06 3.21 0.06 5.79 3.01 0.12 4.8 0.06z"/>
	<path class="s1" d="m453.03 242.23q-1.79 0-3.08-1.17-1.29-1.23-1.36-3.02 0-1.6 0.99-2.83 1.05-1.29 2.59-1.54 0.06-10.72-0.06-27.17-1.48-0.31-2.46-1.48-0.99-1.17-0.99-2.77 0-1.79 1.29-3.02 1.29-1.23 3.08-1.23l6.96 0.06q1.79 0 3.02 1.29 1.23 1.29 1.23 3.08 0 1.54-1.05 2.71-0.99 1.17-2.52 1.48 0.18 16.2 0.12 26.86 1.54 0.25 2.53 1.42 1.05 1.17 1.11 2.71 0 1.79-1.23 3.08-1.17 1.29-2.96 1.35c0 0-7.21 0.18-7.21 0.19z"/>
	<path class="s1" d="m499.78 242.6q-4.56-0.18-8.13-2.03-3.57-1.84-5.73-4.81-4.5-6.03-4.62-13.68-0.13-4.19 0.8-7.82 0.93-3.63 2.77-6.96 1.78-3.27 4.87-5.79 3.07-2.59 6.96-3.7 1.54-0.37 3.51-0.37h1.29q0.99 0 1.42 0.06 0.44 0.06 0.92 0.06 1.97 0.06 3.2 0.18 1.17 0.12 3.14 0.8 1.97 0.68 3.88 1.97 4.31 2.96 6.41 7.45 2.03 4.5 1.97 9.36-0.07 4.8-1.66 9.24-1.61 4.38-4.62 8.13-3.02 3.7-7.21 5.91-4.13 2.16-9.18 1.97zm0.37-8.44q2.59 0.06 4.99-1.29 2.4-1.35 4.31-3.76 1.97-2.4 3.14-5.48 1.91-5.17 0.86-9.36-0.99-4.19-4.19-6.41-0.79-0.56-1.36-0.8-0.5-0.31-1.17-0.55-0.74-0.24-1.91-0.31-1.17-0.06-1.85-0.12-0.68-0.06-0.99-0.18-0.3-0.06-1.17-0.06-0.8-0.12-1.66 0.18-4.38 1.61-6.9 5.79-2.46 4.13-2.34 9.98 0.06 3.51 1.29 6.28 1.29 2.78 3.51 4.44 2.28 1.6 5.42 1.66z"/>
	<path class="s1" d="m585.19 237.92q-0.06 1.72-0.99 2.71-0.86 0.99-2.16 1.29-1.29 0.31-2.59-0.06-1.29-0.37-2.16-1.42-0.8-1.05-0.74-2.77 0.12-4-0.12-23.65-4.56 5.73-8.99 12.26-1.05 1.48-2.77 1.85-1.73 0.31-3.2-0.68-0.18-0.12-0.31-0.25-0.68-0.43-1.17-1.05l-9.49-11.95q0.06 0.13 0.06 11.77-0.06 11.71-0.06 11.77 0 1.72-0.86 2.77-0.85 0.99-2.16 1.36-1.29 0.32-2.59 0-1.29-0.37-2.16-1.36-0.86-1.05-0.86-2.77 0-2.59 0.06-8.69v-4.25q0-2.46-0.06-4.99v-4.74q0-2.22-0.06-3.7-0.12-4.37-0.43-9.06-0.12-1.79 1.05-3.14 1.17-1.35 2.96-1.48 0.93-0.06 1.73 0.25 1.72 0.25 2.77 1.66l13.68 17.19q6.65-9.24 13.55-16.63 1.3-2.22 3.82-2.16 1.79 0.06 3.02 1.35 1.23 1.29 1.17 3.08-0.18 5.85 0 17.87 0.18 12.07 0.06 17.62z"/>
	<path class="s1" d="m602.82 239.52q-0.74-1.67-0.06-3.26l13.8-35.54q0.49-1.17 1.54-1.91 1.05-0.74 2.34-0.8 1.35-0.24 2.65 0.49 1.35 0.68 2.03 1.97l4.56 11.33 5.36 13.25 4.25 11.09q0.61 1.6 0.18 2.9-0.43 1.23-1.54 2.03-1.05 0.79-2.4 0.99-1.29 0.12-2.53-0.49-1.17-0.62-1.85-2.16l-3.57-8.13q-6.9-0.18-13.68 0.12l-3.02 8.13q-0.8 1.72-2.46 2.34-1.61 0.55-3.26 0-1.61-0.61-2.34-2.35zm14.66-16.94h6.78l-3.27-8.87z"/>
	<path class="s1" d="m670.74 242.6q-4.74 0.12-8.56-1.48-3.82-1.6-6.04-4.68-2.22-3.07-2.22-7.15 0-2.47 1.42-3.82 1.42-1.42 3.2-1.42 1.79 0 2.89 1.29 1.11 1.23 1.11 2.77 0 1.54 0.18 2.59 0.18 0.98 0.92 1.85 1.42 1.72 7.21 1.72 3.14 0 5.36-1.29 2.22-1.29 2.22-3.7 0-1.6-2.59-3.08-1.79-0.98-7.95-3.08-6.72-2.22-10.1-5.11-3.39-2.95-3.39-8.01 0-3.88 2.22-6.78 2.22-2.9 5.79-4.43 3.63-1.54 7.7-1.54 4.18-0.12 8.07 1.35 3.88 1.48 6.22 4.25 2.4 2.71 2.4 6.16 0 1.85-1.36 3.2-1.35 1.29-3.14 1.29-1.23 0-2.4-0.74-1.17-0.74-1.48-1.85-0.37-1.48-1.11-2.28-0.68-0.8-1.85-1.48-1.54-0.86-2.77-1.23-1.23-0.37-3.51-0.37-2.71 0-4.5 1.05-1.72 0.99-1.72 2.59 0 2.03 1.97 3.33 2.04 1.29 5.67 2.46 7.02 2.34 9.36 3.64 3.88 2.16 5.48 4.56 1.6 2.4 1.6 6.04 0 3.89-2.34 6.9-2.34 3.07-6.16 4.8-3.76 1.66-7.82 1.66z"/>
	<path class="s1" d="m353.08 121.76c0-29.51 13.19-51.15 49.93-51.15 33.21 0 42.69 12.45 45.71 24.96 2.47 12.45-6.17 24.63-21.6 20.02-14.42-4.21-9.88-26.2-28.83-26.2-14.42 0-19.18 7.74-19.18 20.59 0 14.08 7.57 19.52 19.18 20.59 9.65 0.9 17.05-0.17 25.86-1.74 20.36-3.7 23.56 3.14 23.56 15.49 0 13.68-13.36 29.17-44.65 29.17-36.01 0-49.93-20.19-49.93-51.67l-0.06-0.06z"/>
	<path class="s1" d="m459.99 123.17c-6.68-36.01-1.41-51.83 9.48-51.83 6.9 0 13.13 5.39 15.03 11.84 2.74 9.31-2.86 18.96-3.08 28.66-0.11 4.04 0.73 8.03 1.85 11.84 1.07 3.71 2.53 7.52 5.61 9.82 3.92 2.91 9.76 2.47 13.69-0.45 3.92-2.91 6-7.91 6.11-12.79 0.11-4.04-0.95-8.19 0.45-11.95 1.52-4.04 5.73-6.62 10.05-7.07 4.32-0.45 8.58 1.01 12.34 3.14 2.19 1.24 4.32 2.8 5.56 5.05 2.69 4.77 0.61 11 2.58 16.16 1.91 4.99 7.74 7.97 13.02 7.06 5.27-0.9 9.59-5.27 11-10.43 0.84-3.08 0.67-6.28 0.56-9.48-0.23-4.77-0.4-9.48-0.61-14.25-0.28-6.17-0.51-12.62 2.19-18.23 2.3-4.88 9.65-11 15.09-7.29 2.91 1.96 4.49 6.62 5.33 9.76 3.31 12.9 0.78 27.65-1.62 40.44-6.17 34.1-19.18 51.67-32.71 51.67-17.39 0-16.88-41.12-29.51-41.12-12.63 0-12.12 41.12-29.51 41.12-13.52 0-26.53-17.56-32.71-51.67h-0.17l-0.02-0.02z"/>
	<path class="s1" d="m595.52 150.59c1.73-17.73 1.57-35 0-51.83-2.64-27.77 25.29-27.94 44.82-27.94 19.53 0 48.85 6.85 51.16 26.03 1.91 13.36-7.57 18.63-7.57 25.63 0 7 11.28 10.21 10.04 25.13-1.74 21.43-29.34 26.87-53.63 26.87-22.83 0-47.63-0.73-44.82-23.9zm59.91-51.66c0-8.41-6.51-11.78-19.86-11.78-15.09 0-19.86 3.87-19.86 11.78 0 9.48 8.98 11.78 19.86 11.78 11.95 0 19.86-2.3 19.86-11.78zm10.71 36.18c0-8.41-6.51-11.78-19.86-11.78-14.92 0-20.02 3.87-20.02 11.78 0 9.48 8.98 11.61 20.02 11.61 11.78 0 19.86-2.13 19.86-11.61z"/>
</svg>