<svg version="1.2" xmlns="http://www.w3.org/2000/svg" viewBox="0 0 387 421" width="387" height="421">
	<style>
		.s0 { fill: #f5f5f5 } 
		.s1 { fill: #ffc428 } 
		.s2 { fill: #ffffff } 
	</style>
	<path class="s0" d="m101.15 264.04c13.93 0 10.59 16.16 21.19 19.25 11.34 3.38 17.68-5.57 15.87-14.72-2.22-9.2-9.19-18.35-33.6-18.35-27 0-36.69 15.91-36.69 37.6h0.01l0.04 0.05c0 23.13 10.22 37.97 36.69 37.97 23.01 0 32.82-11.38 32.82-21.44 0-9.07-2.35-14.1-17.32-11.38-6.48 1.16-11.92 1.94-19.01 1.28-8.53-0.78-14.1-4.78-14.1-15.13 0-9.44 3.5-15.13 14.1-15.13z"/>
	<path fill-rule="evenodd" class="s0" d="m146.71 288.85v-0.01h-0.01l0.01 0.01z"/>
	<path class="s0" d="m235.56 251.94c-4-2.72-9.4 1.77-11.09 5.36-1.98 4.12-1.82 8.86-1.61 13.4 0.16 3.5 0.29 6.97 0.45 10.47 0.09 2.35 0.21 4.7-0.41 6.97-1.03 3.79-4.2 7.01-8.08 7.67-3.88 0.65-8.17-1.53-9.57-5.2-1.45-3.79 0.08-8.37-1.9-11.87-0.9-1.65-2.47-2.8-4.08-3.71-2.76-1.57-5.9-2.64-9.07-2.31-3.17 0.33-6.27 2.23-7.38 5.2-1.03 2.76-0.25 5.81-0.33 8.78-0.08 3.59-1.6 7.26-4.49 9.4-2.89 2.14-7.17 2.47-10.06 0.33-2.26-1.69-3.34-4.49-4.12-7.21-0.82-2.8-1.44-5.73-1.36-8.7 0.17-7.13 4.29-14.23 2.27-21.07-1.4-4.74-5.98-8.7-11.05-8.7-8 0-11.88 11.63-6.97 38.09h0.11c4.54 25.07 14.1 37.97 24.04 37.97 12.78 0 12.41-30.22 21.69-30.22 9.28 0 8.91 30.22 21.69 30.22 9.94 0 19.5-12.9 24.04-37.97 1.78-9.4 3.63-20.25 1.2-29.73-0.62-2.31-1.78-5.73-3.92-7.17z"/>
	<path class="s0" d="m311.3 288.35c0-5.15 6.97-9.03 5.57-18.84-1.69-14.1-23.25-19.13-37.6-19.13-14.35 0-34.88 0.12-32.94 20.53 1.15 12.37 1.28 25.07 0 38.1h-0.01c-2.06 17.02 16.16 17.56 32.94 17.56 17.86 0 38.14-4 39.42-19.75 0.91-10.97-7.38-13.32-7.38-18.47zm-50.14-17.31c0-5.81 3.51-8.66 14.6-8.66 9.82 0 14.6 2.48 14.6 8.66 0 6.97-5.82 8.66-14.6 8.66-8 0-14.6-1.69-14.6-8.66zm22.48 35.12c-8.12 0-14.72-1.56-14.72-8.53 0-5.82 3.75-8.66 14.72-8.66 9.82 0 14.6 2.48 14.6 8.66 0 6.96-5.94 8.53-14.6 8.53z"/>
	<path class="s1" d="m386.52 340.57c-8.43-10.82-16.78-22.02-21.19-34.98-7.94-23.29-5.15-53.08-1.1-76.92 3.76-22.19 2.53-41.9-0.97-64.3-0.72-4.56-2.11-9.03-2.7-13.59-1.14-8.53-3.75-16.67-5.61-24.98-0.8-3.5-1.14-7.09-1.77-10.59-0.72-4.17-1.6-8.35-2.36-12.57-0.34-1.99-0.8-4.05-0.8-6.08 0-3.92 0.72-7.68 2.32-11.39 1.6-3.76 2.36-7.85 3.84-11.69 1.05-2.78 2.61-5.44 4.05-8.1 1.64-3.08 3.46-6.08 5.06-9.2 0.93-1.81 1.56-3.75 2.32-5.65 0.17-0.37 0.38-0.71 0.55-1.05 1.1-2.24 2.32-4.43 3.29-6.71 0.8-1.9 1.01-4.01 1.9-5.82 1.35-2.78 1.43-5.57 0.21-8.14-1.69-3.58-3.8-7-5.87-10.42-0.68-1.14-1.82-2.07-2.83-3-1.35-1.22-2.91-2.15-4.05-3.5-1.64-2.02-3.8-3.08-6.2-3.88-1.69-0.6-3.33-1.35-4.98-2.03-1.47-0.59-2.95-1.35-4.51-1.81-3.8-1.1-7.59-2.15-11.56-2.83-5.06-0.88-9.74-0.84-14.68 0.51-6.66 1.85-11.22 6.33-15.44 11.39-0.72 0.89-1.31 1.94-2.03 2.87-2.62 3.33-5.4 6.58-7.89 10-1.85 2.53-3.42 5.32-5.06 8.02-1.44 2.41-2.7 4.95-4.18 7.33-1.36 2.19-3.04 4.2-4.01 6.61-0.28 0.68-0.49 1.39-0.85 2.03-0.49 0.86-1.23 1.56-2.03 2.15-3.38 2.48-7.94 3.11-11.99 2.03-1.02-0.27-2.04-0.66-2.82-1.38-1.21-1.12-1.63-2.86-1.83-4.5-0.33-2.76-0.07-5.67-0.2-8.5l0.02-0.03c-0.07-1.35-0.22-2.68-0.57-3.96q-1.9-6.95-3.97-13.84c-0.43-1.43-1.14-2.83-2.03-4.05-0.8-1.18-1.86-2.4-3.08-2.95-1.98-0.88-4.18-1.35-6.33-1.81-10.16-2.23-20.5-3.54-30.88-4.13-3.5-0.21-7.09 0.93-10.55 0.59-4.01-0.38-7.68 0.71-11.48 1.22-2.57 0.34-5.65 3.93-6.24 6.5-0.55 2.53-1.52 4.98-2.28 7.47-0.72 2.49-1.69 4.94-2.07 7.47-0.46 2.95-0.38 5.94-0.63 8.94-0.13 1.31-0.59 2.57-0.59 3.84 0 1.98 0.22 3.97 0.51 5.95q0.75 4.94 1.77 9.87c0.51 2.49 0.17 6.29-3.46 6.75-4.31 0.51-8.57 1.27-12.83 1.86-5.86 0.8-11.77 1.35-17.59 2.28-5.36 0.88-10.63 2.19-15.95 3.12-10.51 1.82-20.72 4.73-30.38 9.2-4.68 2.15-9.03 4.9-13.5 7.47-2.19 1.26-4.3 2.7-6.41 4.09-2.91 1.94-5.4 4.22-5.99 7.89-0.68 4.26-1.77 8.4-3.08 12.53-1.43 4.56-1.98 9.41-2.74 14.18-0.63 3.71-1.18 7.47-1.39 11.22-0.16 3.55 0.05 7.14 0.3 10.68 0.38 5.73 0.71 11.47 1.43 17.21 0.42 3.5-1.1 5.82-4.56 5.86h-0.84c-6.84 0.3-13.8-0.34-20.51 1.69-2.11 0.59-4.17 1.31-6.24 2.07-3.97 1.43-7.72 3.33-10.34 6.75-2.19 2.83-3.84 6.03-6.62 8.48-1.56 1.39-2.45 3.55-3.67 5.36-1.1 1.6-2.32 3.12-3.29 4.81-1.31 2.28-2.37 4.73-3.59 7.09-1.18 2.27-2.74 4.43-3.67 6.79-2.34 6.03-3.87 12.44-5.35 18.73-1.96 8.32-2.16 14.95-1.42 23.3 0.24 2.64 0.21 5.29 0.48 7.93 0.77 7.59-0.08 14.8 1.78 22.4 1.76 7.19 4.82 14.3 8.51 20.51 2.66 4.47 4.89 9.07 6.75 13.92 1.22 3.24 2.65 6.45 4.51 9.32 3.38 5.28 8.4 8.99 13.21 12.83 2.19 1.73 4.85 2.87 7 4.6 2.78 2.27 5.73 4.17 9.32 4.89q1.92 0.37 3.76 0.93c2.15 0.68 4.22 1.82 6.41 2.07q8.22 1.02 16.45 1.27c3.41 0.13 6.87-0.8 10.25-0.46 7.09 0.72 14.09 2.07 21.14 3 4.47 0.55 8.99 0.84 13.5 1.18 1.31 0.13 2.57 0 3.88 0 1.81-0.04 3.67-0.25 5.48-0.21 1.56 0.05 3.08 0.51 4.64 0.51 3.63-0.04 7.26-0.21 10.89-0.38q6.9-0.31 13.75-0.76c1.23-0.04 2.41-0.59 3.63-0.63 7.59-0.33 15.23 0.05 22.74-1.64 4.05-0.93 8.14-1.35 12.15-2.28 4.05-0.93 8.05-1.6 12.19-1.56 3.42 0.04 6.79-0.12 10.17-0.42 1.35-0.08 2.57-1.01 3.92-1.35 2.96-0.72 5.95-1.44 8.99-1.9 23.08-3.67 45.83-0.68 68.44-5.95 14.81-3.46 29.58-6.12 44.81-6.92 5.38-0.26 29.09-2.91 36.82-0.03 0.41 0.15 0.76-0.34 0.49-0.69zm-196.7 11.74v0.02c-0.68 0.43-2.7 0.74-3.1 0.83q-1.95 0.46-3.91 0.84c-2.49 0.48-4.89 1.11-7.51 1.3-2.62 0.19-5.25 0.05-7.87 0.17-3.93 0.19-7.5 1.82-11.42 1.92-4.4 0.11-8.8-0.02-13.2-0.1-10.74-0.2-21.53-0.24-32.26-0.67-3.64-0.15-7.17-1.14-10.79-1.4-3.4-0.24-6.83-0.22-10.24-0.25-5.81-0.06-11.79 0.63-17.52-0.6-3.5-0.75-6.94-1.76-10.36-2.82-2.99-0.93-6.45-1.64-9.12-3.34-2.91-1.9-5.44-4.43-8.48-6.03-2.02-1.06-3.92-2.11-5.65-3.63-1.14-0.97-2.23-1.98-3.5-2.74-2.53-1.56-2.7-4.18-3.08-6.67-0.08-0.6 0.1-1.46 0.48-1.91q0.06-0.08 0.15-0.12c0.38-0.16 1.31 0.08 1.82 0.35 4.89 2.61 9.74 5.36 14.68 7.93 1.86 0.97 3.93 1.6 5.91 2.4 2.78 1.14 5.53 2.36 8.31 3.46 3.04 1.22 6.12 2.32 9.2 3.37 3.26 1.11 6.62 1.91 9.95 2.76 4.26 1.08 8.42 1.74 12.8 2q4.28 0.26 8.49 1.09c4.51 0.89 9.06 1.19 13.63 1.29 2.72 0.05 5.45 0.05 8.18 0.12 2.43 0.06 4.83 0.46 7.28 0.5 2.91 0.05 5.87-0.42 8.82-0.42 4.01-0.04 7.97 0.22 11.98 0.3 1.35 0.04 2.74-0.17 4.09-0.17 3.71 0.04 7.47 0.29 11.18 0.21 3.04-0.08 6.03-0.67 9.07-0.84q3.12-0.17 6.25-0.16c1.77 0 3.63-0.25 5.34 0.27 0.21 0.06 0.43 0.15 0.57 0.32 0.11 0.15 0.03 0.29-0.17 0.42zm156.44-297.43c-2.36 5.02-4.64 10.08-6.71 15.23-1.48 3.75-3 7.42-1.52 11.77 0.8 2.36 0.55 5.19 0.42 7.76-0.5 9.49 0.51 18.86 1.48 28.27 0.42 4.09 0.59 8.23 0.76 12.36 0.22 5.03 0.51 10.09 0.51 15.11 0 4.21-0.63 8.43-0.46 12.61 0.22 5.1 1.02 10.17 1.44 15.23 0.51 6.03 0.38 12.15 1.35 18.1 1.31 8.01 0 16.07 0.93 24.09 0.47 4.22 0.09 8.57 0.34 12.83 0.29 5.27 0.93 10.51 1.22 15.78q0.26 5.64 0 11.35c-0.25 5.24-0.8 10.47-1.14 15.7-0.25 4.22-1.01 8.27-2.28 12.32-1.18 3.92-1.35 8.14-2.32 12.15-1.65 6.96-2.83 14.18-5.53 20.72-3.34 8.1-8.53 15.02-18.02 17-4.89 1.01-9.75 2.32-14.64 3.54-1.51 0.38-2.99 1.01-4.51 1.35-7.68 1.6-15.45 1.77-23.21 1.77-1.77 0-3.5-0.89-5.27-0.89-4.43-0.04-8.82 0.3-13.21 0.34-2.62 0-5.23-0.21-7.85-0.29-7.51-0.3-14.93 0.68-22.4 1.73-4.93 0.71-10.04 0.55-15.06 0.84-3.21 0.21-6.45 0.51-9.66 0.76-2.95 0.25-5.91 0.68-8.86 0.76-7.85 0.21-15.74 0.21-23.59 0.38-6.75 0.13-13.5 0.3-20.21 0.72-12.15 0.81-24.26 0.64-36.33-1.22-5.53-0.84-11.14-0.76-16.71-1.35-3.12-0.33-6.32-0.84-9.32-1.77-5.52-1.73-10.97-3.71-16.41-5.74-4.43-1.65-8.94-3.21-13.12-5.36-3.62-1.85-7.17-4.13-10.29-6.79-3.08-2.62-5.32-6.2-8.4-8.82-3.93-3.33-6.46-7.76-9.79-11.56-4.05-4.6-6.92-9.96-8.61-15.99-0.97-3.55-1.1-6.92-0.93-10.55 0.3-5.49-0.25-11.06 0-16.54 0.22-4.72 1.14-9.41 1.65-14.09 0.51-4.43 0.89-8.9 1.35-13.33 0.59-5.28 1.65-10.47 3.8-15.36 1.18-2.62 2.87-4.85 4.68-7.13 2.96-3.76 6.33-7.01 9.96-9.92 1.82-1.47 4.35-2.36 6.71-2.74 6.88-1.09 13.84-1.77 20.8-2.53 2.74-0.29 5.53-0.33 8.27-0.46 1.9-0.09 3.08 0.92 3.84 2.57 1.31 2.7 2.49 5.49 3.97 8.06 3.25 5.62 7.17 10.72 11.94 15.15 2.66 2.49 5.15 5.19 7.85 7.64 4.56 4.14 10.04 6.71 15.74 8.82 2.54 0.93 4.98 1.98 7.43 3.08 4.31 1.94 8.95 2.49 13.59 3.04 5.78 0.72 11.6 1.18 17.34 2.11 2.62 0.42 5.02 1.86 7.64 2.45 3.92 0.92 7.93 1.6 11.94 2.19 3.12 0.43 6.29 0.59 9.41 0.89 4.17 0.38 5.78-0.51 7.38-4.35 0.65-1.56 1.56-2.99 1.97-4.64 0.07-0.3 0.13-0.61 0.05-0.91-0.11-0.38-0.44-0.66-0.81-0.81-0.37-0.15-0.77-0.19-1.16-0.24-4.65-0.57-8.54-2.35-12.76-4.26-5.17-2.34-10.3-2.48-15.96-3.13-5.66-0.65-11.29-1.64-16.79-3.13-4.22-1.14-8.56-2.11-12.57-3.84-4.94-2.11-9.62-4.94-14.43-7.43-2.07-1.05-4.14-2.06-6.29-2.95-6.08-2.57-11.82-5.78-16.5-10.38-2.57-2.54-4.43-5.95-6.24-9.16-1.99-3.63-3.38-7.55-5.32-11.18-2.4-4.52-3.08-9.37-3.5-14.35-0.21-2.15-0.63-4.26-0.8-6.37-0.21-3.08-0.3-6.12-0.38-9.2-0.17-4.52-0.34-9.08-0.34-13.59-0.04-3.5 0.8-6.88 1.9-10.21 1.18-3.67 2.15-7.39 3.08-11.1 0.8-3.24 3.29-5.31 5.4-7.59 2.03-2.24 4.18-4.43 6.46-6.37 3.37-2.91 6.58-5.99 10.8-7.72 4.35-1.77 8.48-3.97 12.87-5.57 3.89-1.4 7.98-2.58 12.07-3.21 8.81-1.39 17.72-2.36 26.62-3.46 5.45-0.71 10.85-1.39 16.29-1.98 6.49-0.72 12.99-1.27 19.49-2.03q5.54-0.64 11.04-1.63c1.18-0.21 2.3-0.65 3.4-1.13 1.82-0.78 3.69-0.69 5.53-0.24 1.19 0.29 2.43 0.37 3.64 0.18 1.05-0.16 2.08-0.4 3.11-0.65h-0.03q1.07-0.27 2.13-0.5 1.8-0.36 3.6-0.72c1.03-0.21 2.18-0.68 3.23-0.68 2.96-0.61 5.65-0.6 8.65-0.79 2.66-0.17 5.36 0.3 8.06 0.34 5.36 0.08 10.72-0.13 16.08 0.25 4.34 0.3 8.57-0.49 12.85-1.07 4.42-0.59 8.87-1.03 13.34-1.03 4.45 0.01 8.88 0.47 13.29 1 4.13 0.5 8.32-0.15 12.45-0.65 1.52-0.18 2.62-1.01 2.25-2.68-0.38-1.61-1.01-3.08-2.91-3.21-5.87-0.41-11.35-0.54-16.99-2.55-0.44-0.16-0.9-0.34-1.2-0.69-0.92-1.08 0-3.34 0.36-4.51q0.79-2.53 2.05-4.87c2.66-5.03 6.6-9.1 8.79-14.41 1.56-3.77 2.97-7.96 6.17-10.69 1.35-1.15 2.51-2.57 4.05-3.5 1.65-0.99 3.34-0.65 5.14-0.26 3.98 0.86 8.02 1.07 12 1.79 3.35 0.61 6.7 1.76 9.97 2.81 1.83 0.59 4.7 1.81 6.4 2.71 1.27 0.67 2.74 1.11 2.76 2.84 0.02 1.07-0.5 2.07-1.01 3.01-2.94 5.48-6.09 10.92-8.73 16.55zm9.88 218.4c-0.46 1.48-1.18 2.83-1.77 4.22-0.26-0.08-0.47-0.13-0.72-0.21q0.45-3.79 0.84-7.64c0.97-10.17 0.89-20.38 0.13-30.55-0.29-4.31-0.13-8.65-0.21-13-0.09-3.37-0.3-6.71-0.38-10.08-0.04-0.67 0.13-1.43 0.21-2.11h0.01v0.05c1.81-0.21 2.36 0.81 2.57 2.03 0.51 3.2 1.14 6.45 1.35 9.7 0.55 7.89 1.26 15.82 1.18 23.71-0.13 8.02-0.89 16.07-3.21 23.88z"/>
	<path class="s1" d="m279.02 141.73c-3.38-1.14-6.67-1.78-9.75-1.44v-0.03h0.03c-7.34-0.38-14.89 2.15-19.11 4.85-2.02 1.31-4.09 2.32-6.37 3-1.14 0.33-2.24 0.84-3.25 1.43-0.8 0.47-1.52 1.14-2.32 1.65-2.65 1.73-3.92 4.35-3.92 7.43-0.04 3.34 1.14 6.29 3.08 9.16 2.45 3.63 5.28 6.29 9.58 7.05 1.18 0.21 2.49-0.21 3.67 0 6.24 1.14 12.15-0.33 17.93-2.4 0.51-0.21 0.89-0.76 1.31-1.18 0.29-0.33 0.46-0.88 0.84-1.05 2.49-1.18 5.15-2.11 7.6-3.46 3.34-1.81 6.54-4.17 7.47-7.97 0.72-2.82 0.76-6.03 0.3-8.94-0.64-3.97-3.04-6.71-7.09-8.1z"/>
	<path class="s1" d="m141.98 202.94c-2.99-1.64-6.24-2.83-9.28-4.43-2.53-1.35-4.89-3.04-7.3-4.64-3.12-2.07-5.74-4.51-6.37-8.48-0.3-1.86-0.72-3.67-0.76-5.53-0.13-4.09-0.47-8.23 0.04-12.28 0.42-3.37 0.8-6.66 0.42-10.04-0.09-0.81 0.12-1.9 0.63-2.45 3.63-3.72 7.3-7.43 11.18-10.93 1.86-1.64 3.72-2.95 4.35-5.61 0.54-2.45 0.21-4.18-2.24-4.56-2.24-0.34-4.64-0.12-6.88 0.34-2.23 0.43-4.3 1.82-6.58 2.24-3.59 0.72-7.26 0.93-10.93 1.35h-0.04q-0.07-0.31-0.08-0.63c-3.08-0.17-6.04 1.61-7.09 4.56-0.29 0.88-0.25 2.11 0.13 2.95 0.59 1.35 1.64 2.53 2.4 3.84 0.76 1.31 1.86 2.62 2.03 4.01 1.14 8.44 1.99 16.96 3.04 25.4 0.63 4.85 1.18 9.7 2.32 14.43 0.55 2.41 1.78 4.98 4.94 5.49 0.76 0.08 1.39 0.8 2.11 1.22 3.38 2.06 6.67 4.3 10.17 6.2 4.38 2.41 8.9 4.52 13.33 6.84 1.48 0.76 3.71 0.55 4.98-0.76 1.26-1.35 1.69-3.25 0.59-4.56-1.35-1.61-3.25-2.96-5.11-3.97z"/>
	<path class="s2" d="m78.99 413.41q0.05-7.88-0.09-19.88 1.14-0.23 1.87-1.09 0.78-0.87 0.78-2.01 0-1.32-0.91-2.28-0.91-0.96-2.23-0.96l-5.15-0.05q-1.32 0-2.28 0.91-0.96 0.91-0.96 2.23 0 1.18 0.73 2.05 0.73 0.87 1.82 1.09 0.09 12.17 0.05 20.1-1.14 0.18-1.91 1.14-0.73 0.92-0.73 2.1 0.04 1.33 1 2.23 0.96 0.87 2.28 0.87l5.33-0.14q1.32-0.04 2.19-1 0.91-0.96 0.91-2.28-0.04-1.14-0.82-2.01-0.73-0.87-1.87-1.05z"/>
	<path class="s2" d="m118.1 390.71q-1.23-1.14-2.73-1.96-1.5-0.82-3.19-1.23-1.73-0.36-3.05-0.59-0.91-0.14-2.14-0.14-1.18-0.04-2.28 0-1.1 0.05-1.64 0.09-0.87 0.05-2.64 0.23-0.41 0-0.82 0.14-1.32-0.04-2.32 0.87-0.96 0.91-1 2.14-0.18 2.1-0.09 13.13 0.09 11.08 0.05 13.13 0 1.28 0.91 2.23 0.92 0.91 2.19 0.96 0.27 0.05 0.59 0.05h3.1q2.46 0.04 3.42 0 4.69-0.22 7.57-1.6 2.73-1.37 4.79-3.78 2.06-2.46 3.05-5.47 0.96-2.96 1-6.52 0.05-3.51-1.18-6.52-1.18-3.01-3.56-5.15zm-1.64 12.85q-0.14 2.47-1.09 4.51-1.46 3.1-4.19 4.42-1.64 0.78-5.02 1-1.32 0.05-3.55-0.04 0-1.92-0.05-4.28 0-2.37-0.05-4.79v-4.47q0-2.32 0.05-6.66 4.06-0.31 6.75 0.09 2.74 0.4 4.51 2.01 1.45 1.32 2.1 3.55 0.69 2.19 0.55 4.65z"/>
	<path class="s2" d="m144.51 413.41q0.05-7.88-0.09-19.88 1.14-0.23 1.87-1.09 0.78-0.87 0.78-2.01 0-1.32-0.91-2.28-0.91-0.96-2.23-0.96l-5.15-0.05q-1.32 0-2.28 0.91-0.96 0.91-0.96 2.23 0 1.18 0.73 2.05 0.73 0.87 1.82 1.09 0.09 12.17 0.05 20.1-1.14 0.18-1.91 1.14-0.73 0.92-0.73 2.1 0.04 1.33 1 2.23 0.96 0.87 2.28 0.87l5.33-0.14q1.32-0.04 2.19-1 0.91-0.96 0.91-2.28-0.04-1.14-0.82-2.01-0.73-0.87-1.87-1.05z"/>
	<path class="s2" d="m183.93 389.02q-1.41-0.96-2.87-1.46-1.46-0.5-2.33-0.59-0.92-0.09-2.37-0.14-0.36 0-0.68-0.05-0.32-0.04-1.05-0.04h-0.96q-1.46 0-2.6 0.27-2.87 0.82-5.15 2.73-2.28 1.87-3.6 4.29-1.37 2.46-2.05 5.15-0.69 2.69-0.59 5.79 0.09 5.65 3.42 10.12 1.59 2.18 4.24 3.56 2.64 1.37 6.02 1.5 3.74 0.14 6.79-1.46 3.1-1.63 5.33-4.38 2.23-2.78 3.42-6.02 1.18-3.28 1.23-6.84 0.04-3.6-1.46-6.93-1.54-3.33-4.74-5.52zm-1.09 17.09q-0.87 2.28-2.33 4.06-1.41 1.77-3.19 2.78-1.78 1.01-3.69 0.96-2.33-0.04-4.01-1.23-1.64-1.23-2.6-3.28-0.91-2.05-0.96-4.65-0.09-4.33 1.73-7.39 1.87-3.1 5.1-4.28 0.64-0.23 1.23-0.14 0.64 0 0.87 0.04 0.23 0.09 0.73 0.14 0.5 0.05 1.37 0.09 0.87 0.05 1.41 0.23 0.49 0.18 0.87 0.41 0.41 0.18 1 0.59 2.37 1.64 3.1 4.74 0.77 3.11-0.64 6.93z"/>
	<path class="s2" d="m236.51 390.44q0.04-1.32-0.87-2.28-0.91-0.96-2.23-1-1.87-0.05-2.83 1.6-5.1 5.47-10.03 12.31l-10.12-12.72q-0.78-1.05-2.05-1.23-0.59-0.23-1.28-0.18-1.32 0.09-2.19 1.09-0.87 1-0.78 2.33 0.23 3.46 0.32 6.7 0.05 1.09 0.05 2.74v3.51q0.04 1.87 0.04 3.69v3.15q-0.04 4.51-0.04 6.43 0 1.28 0.64 2.05 0.64 0.73 1.6 1 0.96 0.22 1.91 0 0.96-0.27 1.6-1 0.64-0.78 0.64-2.05 0-0.04 0.05-8.71 0-8.62-0.05-8.71l7.02 8.84q0.36 0.45 0.87 0.78 0.09 0.09 0.23 0.18 1.1 0.73 2.37 0.5 1.27-0.27 2.05-1.37 3.29-4.84 6.66-9.07 0.18 14.54 0.09 17.51-0.05 1.27 0.55 2.05 0.64 0.78 1.59 1.05 0.96 0.27 1.92 0.05 0.96-0.23 1.59-0.96 0.69-0.73 0.73-2.01 0.09-4.11-0.05-13.04-0.13-8.89 0-13.23z"/>
	<path class="s2" d="m273.45 407.17l-3.97-9.8-3.37-8.39q-0.49-0.96-1.5-1.46-0.96-0.55-1.96-0.36-0.96 0.05-1.73 0.59-0.78 0.55-1.14 1.41l-10.21 26.3q-0.5 1.19 0.05 2.42 0.54 1.28 1.73 1.73 1.23 0.4 2.42 0 1.23-0.45 1.82-1.73l2.23-6.02q5.02-0.22 10.12-0.09l2.64 6.02q0.5 1.14 1.37 1.6 0.91 0.46 1.87 0.36 1-0.13 1.78-0.73 0.83-0.6 1.14-1.51 0.32-0.96-0.14-2.14c0 0-3.15-8.21-3.15-8.2zm-10.9-1.82h-2.1l2.6-6.56 2.42 6.56z"/>
	<path class="s2" d="m310.77 405.8q-1.18-1.77-4.06-3.37-1.72-0.96-6.93-2.69-2.69-0.87-4.19-1.82-1.46-0.96-1.46-2.46 0-1.19 1.28-1.91 1.32-0.78 3.33-0.78 1.68 0 2.6 0.27 0.91 0.28 2.05 0.91 0.86 0.51 1.37 1.1 0.54 0.6 0.82 1.69 0.23 0.82 1.09 1.37 0.87 0.55 1.78 0.55 1.32 0 2.32-0.96 1-1 1-2.37 0-2.55-1.78-4.56-1.74-2.05-4.6-3.15-2.88-1.09-5.97-1-3.02 0-5.7 1.14-2.64 1.14-4.28 3.28-1.64 2.15-1.64 5.01 0 3.74 2.51 5.93 2.5 2.15 7.48 3.78 4.56 1.55 5.88 2.28 1.92 1.1 1.92 2.28 0 1.78-1.64 2.74-1.64 0.96-3.97 0.96-4.29 0-5.33-1.28-0.54-0.64-0.68-1.37-0.14-0.78-0.14-1.92 0-1.14-0.82-2.05-0.82-0.96-2.14-0.96-1.32 0-2.37 1.05-1.05 1-1.05 2.83 0 3.01 1.64 5.29 1.63 2.28 4.47 3.46 2.83 1.19 6.34 1.09 3.01 0 5.79-1.23 2.82-1.28 4.56-3.55 1.74-2.23 1.73-5.11 0-2.69-1.18-4.47z"/>
</svg>